{"glyphs":{":":{"x_min":0,"x_max":209,"ha":209,"o":"m 94 154 q 94 173 110 189 q 127 206 146 206 q 169 206 179 192 q 189 179 189 163 q 188 147 178 135 q 167 122 146 123 q 139 123 130 125 q 121 126 113 129 q 104 133 99 139 q 94 146 94 154 z m 55 388 q 39 393 38 403 q 36 413 43 423 q 51 434 62 441 q 74 449 85 450 q 123 445 136 428 q 148 410 142 396 q 136 381 112 375 q 89 369 55 388 z"},"$":{"x_min":0,"x_max":696,"ha":696,"o":"m 312 236 q 315 227 298 222 q 280 217 257 215 q 234 213 214 213 q 193 214 190 214 q 188 215 185 223 q 183 230 181 240 q 179 250 177 259 q 175 268 173 270 q 178 279 198 285 q 219 291 243 295 q 267 299 289 300 q 311 302 318 304 l 318 466 q 314 466 290 466 q 266 466 231 468 q 197 470 159 476 q 121 481 89 493 q 57 504 35 522 q 14 541 14 568 q 7 602 18 630 q 29 658 51 682 q 73 706 104 725 q 134 743 166 757 q 197 771 227 779 q 257 788 278 791 l 278 1074 l 338 1074 l 379 831 l 622 831 l 622 780 l 400 749 l 399 517 l 676 517 q 680 464 666 427 q 651 391 627 365 q 603 340 571 324 q 540 308 510 295 q 480 282 456 271 q 431 259 419 243 q 420 231 423 203 q 427 174 430 142 q 433 109 436 81 q 438 53 440 41 l 440 28 q 440 17 426 10 q 411 4 392 0 q 373 -3 354 -4 q 336 -5 328 -5 z m 583 455 q 574 468 553 472 q 531 476 505 473 q 479 471 453 464 q 427 457 411 450 l 419 345 q 436 350 463 359 q 491 368 518 382 q 544 396 563 414 q 583 433 583 455 z m 111 576 q 111 552 126 541 q 142 530 163 527 q 185 523 208 525 q 231 526 247 526 q 251 526 261 526 q 271 526 283 526 q 294 526 304 527 q 313 527 318 527 l 298 709 q 298 711 289 712 q 279 714 273 714 q 250 714 222 702 q 193 689 169 669 q 145 649 128 625 q 111 601 111 576 z"},"?":{"x_min":0,"x_max":632,"ha":632,"o":"m 296 41 q 296 83 339 83 q 356 88 368 82 q 379 76 385 65 q 391 55 391 41 q 391 26 385 16 q 379 5 367 -1 q 355 -7 339 -2 q 296 -2 296 41 z m 155 416 q 177 429 213 448 q 250 468 292 492 q 333 516 376 543 q 419 570 453 599 q 487 627 508 655 q 529 683 527 708 q 524 732 495 754 q 466 775 399 791 q 355 791 313 785 q 271 778 230 770 q 188 762 147 755 q 105 749 63 749 q 57 749 49 754 q 41 760 34 768 q 26 775 21 786 q 15 796 13 805 q 106 835 194 846 q 281 857 355 852 q 429 847 485 827 q 542 807 573 775 q 604 743 607 702 q 609 660 577 612 q 544 564 471 512 q 398 459 278 405 l 419 365 l 419 337 q 408 336 381 334 q 354 333 321 333 q 288 334 254 337 q 220 341 194 350 q 169 359 157 375 q 145 391 155 416 z"},"<":{"x_min":0,"x_max":595,"ha":595,"o":"m 103 279 q 142 310 194 352 q 246 394 300 436 q 354 478 404 514 q 454 551 489 570 q 498 569 504 562 q 510 554 513 543 q 517 532 516 521 q 516 510 512 503 l 225 284 q 243 275 277 259 q 311 243 353 223 q 395 202 440 178 q 485 153 526 126 q 524 124 521 116 q 518 107 513 98 q 509 89 505 81 q 501 72 499 72 q 476 87 441 101 q 406 114 366 129 q 326 144 285 160 q 243 176 207 194 q 171 212 143 233 q 115 254 103 279 z"},"'":{"x_min":0,"x_max":202,"ha":202,"o":"m 102 750 q 128 759 141 752 q 153 745 156 727 q 158 709 153 684 q 147 659 138 632 q 128 605 116 581 q 104 556 92 539 l 33 535 z"},"=":{"x_min":0,"x_max":615,"ha":615,"o":"m 86 212 q 86 217 94 225 q 102 232 106 232 q 155 240 192 246 q 229 251 259 254 q 290 258 318 261 q 346 264 375 268 q 405 271 439 277 q 474 283 519 292 q 547 292 555 274 q 563 256 559 230 q 489 230 437 221 q 384 211 334 200 q 285 188 233 179 q 182 170 115 170 q 101 170 93 179 q 86 188 86 212 z m 103 395 q 104 396 123 399 q 143 401 173 405 q 203 408 242 413 q 280 417 321 421 q 361 426 401 431 q 440 436 473 440 q 492 446 502 440 q 513 435 515 423 q 517 411 511 398 q 506 385 494 377 l 139 329 q 133 329 124 329 q 114 328 104 330 q 95 331 87 335 q 80 340 78 351 z"},"a":{"x_min":0,"x_max":636,"ha":636,"o":"m 513 202 q 484 158 447 123 q 410 87 366 62 q 321 37 269 25 q 217 14 159 19 q 139 19 115 23 q 92 28 72 39 q 52 50 39 67 q 26 85 26 111 q 16 166 31 222 q 46 278 78 331 q 110 383 157 427 q 204 472 257 502 q 311 533 367 547 q 423 561 476 551 q 516 551 538 524 q 561 498 572 454 q 583 410 586 353 q 589 296 591 235 q 593 175 596 116 q 600 57 611 8 l 539 8 q 534 41 532 66 q 529 92 527 114 q 525 136 522 156 q 519 177 513 202 z m 438 463 q 400 466 360 453 q 319 439 282 416 q 244 392 211 359 q 179 326 154 291 q 130 256 117 221 q 104 187 106 157 q 108 128 128 107 q 147 87 188 80 q 247 81 301 110 q 355 139 398 181 q 440 224 469 273 q 497 322 505 364 q 514 406 498 435 q 482 463 438 463 z"},"L":{"x_min":0,"x_max":865,"ha":865,"o":"m 67 25 q 78 67 84 136 q 90 204 93 285 q 97 365 97 451 q 98 536 97 612 q 97 688 96 748 q 96 808 96 837 l 193 834 l 182 118 l 825 101 q 846 95 844 79 q 842 63 825 48 q 809 33 781 23 q 753 14 723 20 z"},"3":{"x_min":0,"x_max":636,"ha":636,"o":"m 181 30 q 250 48 307 77 q 363 105 404 140 q 445 174 470 209 q 494 244 499 273 q 503 303 487 323 q 471 343 430 346 q 390 349 324 332 q 258 314 164 270 l 121 324 q 145 336 180 353 q 215 369 254 390 q 293 410 333 433 q 372 455 405 478 q 438 500 461 521 q 484 543 490 561 q 495 578 479 591 q 464 604 421 611 q 367 611 316 600 q 266 589 215 576 q 165 562 115 552 q 64 541 13 541 q 13 548 13 558 q 14 567 16 578 q 19 588 24 596 q 29 604 40 608 q 92 621 149 635 q 206 649 263 661 q 320 673 374 679 q 428 686 472 683 q 516 680 546 665 q 577 649 589 619 q 589 587 570 557 q 552 526 525 499 q 499 472 470 448 q 441 424 421 405 q 501 404 544 385 q 587 365 600 335 q 612 305 600 266 q 588 228 559 188 q 529 149 487 113 q 445 76 399 49 q 353 21 306 7 q 259 -7 221 -1 q 207 -1 194 6 q 181 13 181 30 z"},";":{"x_min":0,"x_max":155,"ha":155,"o":"m -27 -203 q -2 -117 16 -58 q 34 1 46 40 q 59 78 65 99 q 72 120 76 130 q 80 140 81 141 q 82 143 83 143 q 103 143 110 130 q 117 117 117 102 q 117 64 113 20 q 108 -24 94 -67 q 79 -110 50 -147 q 21 -184 -27 -203 z m 32 394 q 34 417 47 428 q 61 438 76 438 q 91 438 104 427 q 116 416 117 395 q 117 386 112 375 q 107 364 95 364 q 88 364 78 365 q 67 366 57 369 q 47 372 40 378 q 32 384 32 394 z"},"J":{"x_min":0,"x_max":662,"ha":662,"o":"m 11 223 q 11 237 18 252 q 25 268 37 281 q 48 294 62 302 q 75 311 89 311 q 90 265 107 229 q 124 194 153 169 q 183 144 220 127 q 258 111 299 103 q 341 95 383 93 q 426 92 464 97 q 485 107 498 142 q 510 176 516 225 q 521 274 523 334 q 524 394 523 454 q 522 515 521 571 q 521 628 521 672 q 521 716 526 743 q 530 770 541 770 l 623 770 q 623 755 625 719 q 628 683 630 633 q 632 583 633 523 q 635 463 632 400 q 630 338 624 277 q 618 217 605 165 q 592 113 572 75 q 552 37 521 20 q 493 4 447 0 q 400 -3 347 4 q 293 12 237 30 q 181 48 133 75 q 86 103 53 140 q 20 177 11 223 z"},"V":{"x_min":0,"x_max":783,"ha":783,"o":"m 318 20 q 303 62 274 123 q 246 184 212 251 q 178 318 143 387 q 107 455 79 513 q 50 570 32 612 q 14 654 14 669 q 14 674 23 681 q 32 688 44 694 q 58 701 75 709 q 118 630 156 551 q 193 473 229 402 q 265 332 299 272 q 334 212 371 169 q 377 176 396 211 q 415 246 441 299 q 467 352 498 417 q 529 481 560 546 q 590 610 617 669 q 645 728 663 770 q 683 793 701 806 q 720 819 733 820 q 747 820 755 808 q 764 796 764 770 l 417 9 q 407 3 394 0 q 380 -4 366 -4 q 352 -4 339 1 q 326 7 318 20 z"},"\"":{"x_min":0,"x_max":296,"ha":296,"o":"m 180 759 q 180 774 179 799 q 178 824 181 851 q 184 877 193 899 q 202 922 222 932 l 243 912 l 243 669 l 263 628 q 261 626 255 623 q 250 619 244 616 q 237 613 231 611 q 225 608 222 608 q 209 608 201 619 q 192 630 188 646 q 184 663 182 682 q 180 701 179 718 q 179 734 179 746 q 180 758 180 759 z m 67 750 q 67 766 66 791 q 65 815 68 842 q 71 868 80 891 q 89 913 109 923 l 130 903 l 130 660 l 150 619 q 148 617 143 614 q 137 610 130 607 q 124 604 118 601 q 112 599 109 599 q 96 599 88 609 q 80 620 75 637 q 70 653 68 672 q 66 691 66 708 q 66 726 67 737 q 67 749 67 750 z"},"7":{"x_min":0,"x_max":770,"ha":770,"o":"m 557 584 q 491 584 426 580 q 361 576 296 572 q 231 568 166 566 q 101 564 34 568 q 21 574 17 581 q 13 587 13 598 q 13 608 17 615 q 21 622 34 628 q 120 625 205 634 q 289 644 373 656 q 456 669 539 680 q 622 691 705 691 q 725 691 735 680 q 746 669 744 649 q 689 589 636 515 q 582 441 542 360 q 503 278 484 192 q 465 105 480 20 l 379 0 q 379 4 378 14 q 377 24 376 36 q 376 47 375 57 q 375 66 375 71 q 373 120 384 168 q 395 217 413 263 q 431 310 453 354 q 475 397 495 438 q 516 479 532 515 q 549 552 557 584 z"},"S":{"x_min":0,"x_max":804,"ha":804,"o":"m 19 111 q 19 123 27 134 q 35 146 46 155 q 57 165 67 172 q 77 179 81 182 q 83 133 111 107 q 139 82 182 75 q 226 67 280 75 q 334 82 390 99 q 445 116 496 141 q 547 165 584 191 q 622 217 640 241 q 658 266 648 284 l 142 397 q 132 400 118 408 q 104 415 91 424 q 78 434 69 445 q 61 456 61 468 q 61 514 94 552 q 128 590 181 620 q 233 649 298 672 q 362 694 423 709 q 483 725 534 732 q 584 740 608 742 q 615 739 631 738 q 646 736 662 732 q 677 729 687 722 q 697 715 693 701 q 694 684 673 671 q 651 659 616 650 q 580 642 535 635 q 489 629 441 621 q 394 613 348 603 q 302 593 265 578 q 229 562 206 541 q 183 520 182 488 q 182 485 189 482 q 196 479 217 473 q 238 467 277 457 q 315 446 378 429 q 441 412 533 386 q 624 360 750 324 q 767 286 759 252 q 752 218 727 188 q 701 158 662 132 q 622 105 576 84 q 530 63 481 47 q 432 31 386 20 q 341 9 303 3 q 266 -2 242 -1 q 223 -1 186 6 q 148 14 111 28 q 74 43 46 64 q 19 85 19 111 z"},"}":{"x_min":0,"x_max":599,"ha":599,"o":"m 34 -266 l 29 -178 q 42 -174 68 -174 q 94 -174 124 -166 q 153 -158 183 -137 q 213 -116 234 -71 q 256 -25 264 51 q 272 128 260 246 q 271 245 299 262 q 326 278 353 302 q 380 326 397 352 q 414 378 405 396 q 405 410 396 422 q 387 434 373 443 q 358 452 342 461 q 325 471 311 481 q 297 491 288 503 q 278 516 278 533 q 284 656 274 741 q 265 825 245 880 q 226 936 200 967 q 175 998 149 1014 q 124 1029 101 1035 q 77 1041 63 1045 l 63 1110 q 138 1110 189 1083 q 240 1056 274 1011 q 309 967 327 910 q 346 853 354 793 q 363 733 364 676 q 365 618 363 572 q 376 545 400 524 q 425 504 450 485 q 476 466 496 445 q 516 425 519 396 q 517 358 493 329 q 470 299 440 276 q 410 253 383 238 q 356 223 349 214 q 342 158 338 103 q 335 47 327 -4 q 318 -56 302 -101 q 285 -146 252 -181 q 219 -216 167 -238 q 114 -261 34 -266 z"},"Z":{"x_min":0,"x_max":980,"ha":980,"o":"m 939 20 q 856 14 750 8 q 645 2 536 -1 q 427 -4 326 -3 q 226 -3 154 4 q 82 11 50 24 q 19 37 47 61 l 574 649 q 510 653 447 652 q 385 650 323 646 q 262 642 200 636 q 139 631 76 628 q 66 628 61 630 q 56 632 53 639 q 50 646 49 657 q 48 669 47 689 q 114 696 193 703 q 271 710 353 715 q 435 721 515 725 q 596 729 668 731 q 685 731 701 727 q 717 722 717 700 q 704 663 668 613 q 632 563 584 507 q 536 451 481 392 q 426 332 374 276 q 321 221 277 172 q 232 124 206 89 q 270 76 357 76 q 445 75 542 81 q 640 87 740 95 q 841 104 931 109 l 939 20 z"},"x":{"x_min":0,"x_max":588,"ha":588,"o":"m 32 37 q 35 40 49 54 q 62 68 81 89 q 100 110 121 136 q 143 161 163 187 q 184 212 201 235 q 218 259 227 275 q 169 339 124 389 q 104 410 86 430 q 67 450 53 466 q 39 482 30 493 q 21 503 21 503 l 93 579 q 130 534 153 504 q 176 475 191 455 q 206 435 216 421 q 227 408 237 396 q 247 385 260 371 q 272 357 294 337 q 311 358 331 389 q 352 420 375 454 q 398 488 423 522 q 447 557 473 586 q 487 586 499 580 q 510 574 518 566 q 525 558 530 548 q 534 538 534 529 q 513 482 489 448 q 465 414 443 386 q 421 358 403 333 q 385 309 374 279 q 403 259 437 227 q 470 195 500 163 q 529 130 552 102 q 575 73 585 59 q 585 54 580 44 q 574 35 566 25 q 559 16 550 7 q 542 -1 535 -4 q 512 8 486 36 q 461 64 433 99 q 405 133 375 167 q 345 201 312 224 q 295 204 269 172 q 242 140 213 106 q 185 72 158 43 q 131 14 112 0 q 105 -1 94 1 q 82 4 70 9 q 58 14 47 21 q 36 28 32 37 z"},")":{"x_min":0,"x_max":439,"ha":439,"o":"m 136 20 q 156 71 188 116 q 219 160 248 205 q 277 249 298 297 q 319 345 319 404 q 319 502 296 575 q 273 648 235 708 q 196 769 145 821 q 93 874 34 932 q 34 933 33 939 q 32 946 32 951 q 32 979 46 987 q 61 995 86 995 q 141 995 186 963 q 230 932 266 881 q 301 830 327 766 q 353 702 369 638 q 386 573 394 514 q 402 455 402 414 q 402 389 395 348 q 387 307 372 261 q 356 215 335 168 q 313 122 286 84 q 259 47 226 23 q 193 0 156 0 q 151 0 144 7 q 136 15 136 20 z"},"&":{"x_min":0,"x_max":838,"ha":838,"o":"m 128 0 q 119 -1 97 4 q 74 10 52 20 q 30 29 16 43 q 1 57 9 72 l 230 426 q 204 470 188 502 q 171 535 162 565 q 152 595 148 626 q 145 657 145 697 q 148 763 172 815 q 195 868 228 903 q 260 938 296 955 q 332 971 361 963 q 391 955 409 922 q 427 890 423 827 q 420 765 389 670 q 358 576 291 446 q 291 430 308 406 q 324 382 350 356 q 375 331 405 306 q 435 280 462 261 q 490 241 513 229 q 535 216 544 216 q 583 238 607 256 q 632 274 648 291 q 665 307 677 322 q 689 338 704 356 q 719 375 739 398 q 759 421 792 451 q 794 451 801 448 q 808 445 815 441 q 822 437 828 432 q 834 428 834 426 q 831 422 821 403 q 812 385 786 354 q 760 322 714 279 q 669 235 595 182 q 655 151 688 134 q 722 116 737 107 q 753 99 756 96 q 759 94 759 93 q 759 81 753 74 q 748 67 740 64 q 732 61 723 60 q 714 59 705 59 q 679 59 657 69 q 635 79 614 91 q 593 104 571 114 q 550 124 524 124 q 486 104 440 81 q 395 57 344 37 q 293 17 238 5 q 184 -7 128 0 z m 270 365 q 256 351 233 321 q 210 291 186 255 q 161 219 140 181 q 118 144 107 114 q 96 84 99 67 q 103 50 128 55 q 179 55 222 62 q 266 68 306 82 q 347 95 387 115 q 428 136 473 162 z m 202 679 q 202 653 205 631 q 207 609 212 589 q 218 568 227 548 q 236 528 250 507 q 281 524 303 564 q 324 604 337 652 q 351 699 356 747 q 362 794 362 826 q 362 841 363 853 q 364 865 361 874 q 358 883 351 888 q 343 893 325 893 q 291 893 268 870 q 244 847 229 814 q 215 781 208 744 q 202 707 202 679 z"},"_":{"x_min":0,"x_max":858,"ha":858,"o":"m 763 143 q 779 143 795 138 q 811 134 811 112 q 811 98 805 86 q 799 74 790 61 q 701 59 607 54 q 513 49 417 42 q 321 34 226 24 q 131 14 40 0 q 40 1 40 8 q 39 15 39 23 q 39 31 39 38 q 39 45 39 46 q 106 74 196 86 q 286 98 384 104 q 482 110 581 117 q 679 124 763 143 z"},"v":{"x_min":0,"x_max":648,"ha":648,"o":"m 44 473 q 39 488 46 505 q 53 521 65 531 q 77 541 91 541 q 104 540 113 522 l 318 142 q 328 157 350 197 q 371 236 398 286 q 426 336 456 391 q 485 445 511 490 q 537 535 556 564 q 575 594 581 594 q 594 594 604 588 q 613 582 620 573 q 626 563 628 553 q 631 542 630 532 q 577 419 539 335 q 501 251 473 192 q 445 133 427 95 q 408 58 393 36 q 378 14 365 6 q 353 -2 338 -2 q 318 -2 287 36 q 255 74 215 139 q 176 204 132 291 q 88 377 44 473 z"},"O":{"x_min":0,"x_max":838,"ha":838,"o":"m 27 365 q 27 449 56 519 q 85 588 135 637 q 185 687 253 714 q 321 741 400 741 q 477 741 548 722 q 620 703 676 663 q 731 623 765 561 q 799 499 799 412 q 799 211 705 114 q 610 18 414 18 q 331 18 260 37 q 189 57 138 98 q 86 140 57 206 q 27 271 27 365 z m 127 385 q 127 239 200 168 q 272 97 417 97 q 489 97 549 119 q 608 142 650 182 q 692 223 715 279 q 738 335 738 403 q 738 472 709 520 q 680 568 633 599 q 586 630 526 644 q 466 657 404 657 q 350 657 299 636 q 249 614 211 578 q 173 541 150 491 q 127 441 127 385 z"},"(":{"x_min":0,"x_max":372,"ha":372,"o":"m 19 440 q 19 466 24 505 q 30 545 41 593 q 51 642 66 694 q 81 747 101 798 q 120 850 143 896 q 165 942 191 978 q 217 1013 245 1034 q 273 1055 304 1055 q 317 1055 328 1052 q 339 1050 344 1034 q 297 968 256 906 q 216 844 185 778 q 154 713 137 642 q 119 570 119 486 q 119 425 139 368 q 158 312 181 257 q 204 203 224 150 q 243 97 243 41 q 243 32 238 28 q 233 23 227 21 q 220 19 213 18 q 206 18 202 18 q 168 18 141 44 q 114 70 94 111 q 74 151 60 201 q 45 251 36 298 q 27 345 23 383 q 19 422 19 440 z"},"C":{"x_min":0,"x_max":885,"ha":885,"o":"m 26 305 q 26 405 62 497 q 99 589 162 659 q 225 729 310 770 q 396 812 495 812 q 535 812 562 807 q 589 803 605 789 q 622 774 629 748 q 637 722 637 678 q 580 734 518 749 q 456 763 397 746 q 338 729 286 685 q 233 642 196 583 q 158 525 139 458 q 120 390 127 324 q 127 263 149 216 q 171 170 208 140 q 246 109 297 94 q 348 79 405 79 q 478 85 532 104 q 587 122 632 148 q 678 175 719 206 q 761 236 807 266 q 815 266 825 265 q 834 264 842 261 q 850 258 854 251 q 859 245 859 233 q 811 190 754 147 q 697 104 634 71 q 571 37 502 17 q 434 -3 361 -1 q 297 -1 236 21 q 176 43 129 83 q 82 124 54 180 q 26 236 26 305 z"},"W":{"x_min":0,"x_max":1176,"ha":1176,"o":"m 892 81 q 878 101 857 141 q 837 181 813 230 q 790 279 764 332 q 738 385 712 430 q 687 476 663 508 q 639 540 619 548 q 604 525 585 484 q 566 442 545 391 q 524 340 503 283 q 482 227 463 173 q 443 120 427 74 q 411 28 400 0 l 324 4 l 20 709 q 14 722 20 730 q 26 739 37 744 q 48 748 61 750 q 73 752 80 752 q 99 752 108 744 q 117 736 123 724 q 128 712 132 697 q 136 683 142 669 q 156 637 177 591 q 197 545 220 495 q 242 445 266 396 q 289 346 309 305 q 329 264 344 236 q 359 209 365 203 q 416 330 453 418 q 489 506 515 563 q 541 620 557 651 q 572 683 582 697 q 591 712 595 715 q 600 718 602 718 q 617 718 638 698 q 659 679 682 646 q 705 613 730 571 q 755 529 780 484 q 805 438 828 394 q 851 349 871 310 q 891 271 906 243 q 922 215 932 203 q 947 253 962 312 q 977 372 990 437 q 1003 501 1015 568 q 1026 635 1037 698 q 1048 762 1057 820 q 1065 878 1073 926 q 1104 926 1120 920 q 1137 914 1144 903 q 1151 893 1153 878 q 1154 863 1154 847 q 1155 851 1151 814 q 1146 778 1137 714 q 1128 649 1114 564 q 1101 479 1083 385 q 1065 291 1044 196 q 1022 101 998 17 q 974 0 958 -1 q 941 -2 930 8 q 919 19 910 38 q 901 58 892 81 z"},"A":{"x_min":0,"x_max":801,"ha":801,"o":"m 102 17 q 98 12 85 13 q 73 14 61 19 q 48 23 39 30 q 29 36 31 41 q 41 67 62 123 q 83 179 109 249 q 135 318 164 396 q 192 473 218 542 q 244 612 265 667 q 285 723 295 750 q 303 772 306 792 q 309 811 315 824 q 321 838 334 845 q 348 853 376 853 q 411 832 435 804 q 458 776 476 744 q 493 711 506 675 q 520 639 533 603 q 546 566 561 531 q 576 496 599 466 q 606 454 622 450 q 637 446 655 446 q 673 445 692 447 q 711 448 727 446 q 742 444 752 438 q 763 432 763 416 q 767 396 759 386 q 751 376 737 373 q 723 369 705 370 q 687 370 671 371 q 656 372 646 372 q 637 371 639 365 q 650 329 665 285 q 679 241 696 197 q 714 153 734 112 q 755 71 779 42 q 774 36 762 25 q 749 14 736 3 q 723 -7 711 -14 q 700 -21 698 -18 l 526 346 l 193 264 q 188 244 180 212 q 172 181 161 145 q 149 109 135 75 q 120 40 102 17 z m 365 711 q 359 667 343 620 q 327 572 307 526 q 287 479 267 436 q 246 393 230 356 q 266 356 301 364 q 336 371 369 382 q 402 394 434 406 q 465 419 493 430 q 490 443 484 467 q 479 491 470 519 q 462 547 452 577 q 441 607 428 634 q 415 660 399 681 q 384 701 365 711 z"},"f":{"x_min":0,"x_max":742,"ha":742,"o":"m 63 202 q 56 202 47 209 q 39 217 32 228 q 25 239 21 253 q 17 267 17 278 l 202 345 q 186 484 181 589 q 176 693 181 768 q 186 842 200 890 q 215 938 238 965 q 262 993 294 1003 q 326 1014 365 1014 q 401 1014 451 993 q 500 973 545 940 q 591 908 623 869 q 654 829 654 791 q 654 788 654 782 q 653 776 652 770 q 651 764 650 758 q 649 752 648 750 q 627 778 597 811 q 566 844 530 871 q 494 898 454 917 q 414 935 374 935 q 333 935 312 906 q 290 877 281 836 q 271 795 271 751 q 270 708 270 679 q 270 598 274 521 q 279 443 304 365 q 356 365 409 372 q 461 378 514 385 q 567 393 622 399 q 677 406 733 407 q 736 407 738 400 q 739 393 739 381 q 739 369 740 355 q 740 342 742 329 l 323 278 l 346 8 l 246 12 q 246 76 240 138 q 233 200 223 264 z"},"Q":{"x_min":0,"x_max":892,"ha":892,"o":"m 33 282 q 33 376 60 464 q 87 553 140 621 q 192 689 269 731 q 346 772 445 772 q 542 777 611 751 q 681 726 724 679 q 768 633 788 571 q 808 510 806 443 q 804 377 782 312 q 761 246 723 192 q 719 174 727 161 q 735 148 750 140 q 765 131 783 124 q 801 116 816 108 q 831 100 840 88 q 849 77 845 61 q 840 58 830 54 q 820 50 811 47 q 801 44 793 42 q 785 40 784 41 q 769 44 755 53 q 742 62 729 73 q 716 83 702 92 q 688 101 673 103 q 647 79 610 60 q 573 41 530 27 q 486 14 439 6 q 392 -1 348 -1 q 289 -1 233 21 q 177 42 132 80 q 88 118 61 170 q 33 222 33 282 z m 133 313 q 133 247 153 202 q 174 157 210 130 q 247 103 297 91 q 347 79 406 79 q 430 79 458 80 q 485 80 513 85 q 540 91 563 104 q 587 116 602 142 l 379 345 q 378 345 377 348 q 377 352 377 354 q 377 365 382 372 q 387 378 395 381 q 402 385 411 386 q 420 387 429 387 q 462 387 492 367 q 521 348 549 321 q 577 295 605 267 q 633 239 662 223 q 687 262 700 295 q 713 329 719 362 q 725 395 726 430 q 727 465 727 507 q 720 551 706 586 q 691 621 656 646 q 621 671 557 684 q 493 696 388 695 q 348 695 313 675 q 278 655 250 623 q 222 591 200 550 q 178 509 163 466 q 148 424 141 384 q 133 344 133 313 z"},"w":{"x_min":0,"x_max":1011,"ha":1011,"o":"m 497 337 q 471 248 453 172 q 435 97 417 47 q 398 -3 375 -20 q 353 -37 315 -9 q 295 13 268 55 q 241 97 212 148 q 184 200 156 256 q 128 312 106 363 q 84 413 70 452 q 57 490 57 507 q 57 529 70 535 q 83 540 100 535 q 117 530 134 519 q 151 508 159 497 q 168 484 180 454 q 192 424 210 378 q 229 332 253 273 q 277 214 312 144 q 327 168 342 204 q 357 239 372 278 q 387 317 400 356 q 414 395 428 426 q 442 457 458 477 q 473 496 488 497 q 499 503 519 485 q 539 467 564 435 q 590 402 618 361 q 646 319 671 280 q 697 241 719 208 q 740 176 752 161 q 760 161 767 190 q 774 220 784 264 q 793 308 805 358 q 816 409 833 453 q 850 497 873 526 q 896 556 927 556 q 944 556 952 542 q 959 529 957 514 q 943 473 927 419 q 910 366 893 311 q 876 255 858 201 q 840 146 822 103 q 805 60 788 32 q 771 4 756 0 q 744 -6 727 8 q 710 21 689 48 q 668 74 645 110 q 621 146 596 186 q 571 226 546 265 q 521 305 497 337 z"},"-":{"x_min":0,"x_max":388,"ha":388,"o":"m 36 295 q 36 312 50 318 q 64 324 79 326 q 135 334 188 343 q 241 353 299 358 q 323 358 340 350 q 357 342 363 331 q 368 319 361 307 q 354 295 332 288 l 98 264 q 90 264 79 265 q 68 266 59 269 q 50 272 43 278 q 36 284 36 295 z"},"E":{"x_min":0,"x_max":739,"ha":739,"o":"m 42 779 q 67 772 112 771 q 156 770 209 771 q 263 771 321 773 q 379 775 431 775 q 483 775 526 772 q 569 769 594 760 l 594 699 q 561 694 503 693 q 445 692 380 692 q 314 691 249 688 q 184 685 135 674 q 126 634 122 607 q 118 580 117 560 q 115 540 116 522 q 116 505 118 485 q 119 465 121 438 q 122 412 122 374 q 185 374 244 380 q 303 387 361 395 q 419 403 478 410 q 536 416 598 416 l 598 350 l 131 291 l 138 91 q 229 91 304 96 q 378 102 445 107 q 512 113 577 119 q 643 124 716 124 q 716 113 710 98 q 704 83 694 71 q 685 59 672 52 q 660 46 648 55 q 581 47 500 40 q 418 32 334 25 q 251 18 173 11 q 96 5 37 0 z"},"s":{"x_min":0,"x_max":628,"ha":628,"o":"m 169 20 q 238 42 298 72 q 358 103 399 132 q 439 161 454 186 q 468 211 446 224 q 424 236 359 232 q 295 228 177 198 q 142 199 114 212 q 86 225 66 243 q 47 262 37 284 q 26 306 26 326 q 26 358 48 390 q 70 422 107 450 q 145 479 193 501 q 242 524 296 539 q 350 553 406 557 q 462 562 514 552 q 543 552 548 526 q 553 500 553 442 q 513 461 466 469 q 420 477 373 475 q 326 473 282 461 q 238 450 205 430 q 171 410 149 381 q 128 352 127 314 q 127 294 143 288 q 159 281 181 282 q 203 282 227 287 q 251 291 266 291 q 397 319 471 314 q 544 310 569 283 q 595 257 577 215 q 560 174 509 128 q 459 82 382 39 q 305 -5 211 -35 q 206 -35 200 -28 q 194 -21 188 -11 q 182 -1 177 8 q 172 17 169 20 z"},">":{"x_min":0,"x_max":590,"ha":590,"o":"m 144 59 q 103 74 90 91 q 77 108 84 126 q 92 144 115 162 q 139 181 170 200 q 201 220 236 240 q 271 260 302 280 q 333 300 355 321 q 378 342 384 362 l 61 483 l 122 543 q 162 515 198 498 q 233 481 266 472 q 299 462 330 456 q 361 449 393 441 q 424 433 455 418 q 486 404 521 380 q 489 342 441 303 q 393 265 339 225 q 286 185 234 143 q 183 102 144 59 z"},"l":{"x_min":0,"x_max":196,"ha":196,"o":"m 27 791 q 38 806 48 819 q 59 832 78 832 q 91 832 102 802 q 112 771 120 721 q 128 671 134 606 q 140 542 144 473 q 147 403 150 334 q 152 266 154 208 q 155 151 156 110 q 156 69 156 55 q 156 37 149 26 q 142 16 130 9 q 119 3 105 1 q 91 -1 78 -1 q 76 -1 73 0 q 69 0 68 0 q 68 25 67 78 q 65 130 63 196 q 62 262 60 334 q 58 407 55 473 q 53 539 50 591 q 48 644 47 669 q 47 676 44 693 q 42 711 39 730 q 36 750 33 767 q 29 784 27 791 z"},"8":{"x_min":0,"x_max":811,"ha":811,"o":"m 27 182 q 27 213 46 242 q 65 271 89 298 q 112 325 131 350 q 150 374 150 395 q 150 409 144 421 q 137 433 128 443 q 120 454 113 466 q 106 479 106 495 q 106 539 126 574 q 146 608 178 635 q 210 661 251 680 q 293 698 336 710 q 379 722 420 727 q 462 732 494 732 q 527 732 566 731 q 605 729 639 719 q 673 708 695 684 q 718 660 718 616 q 717 576 698 544 q 679 512 655 486 q 688 473 712 459 q 735 446 750 429 q 765 411 771 386 q 778 360 778 324 q 778 269 758 223 q 738 178 705 142 q 671 105 626 79 q 582 52 532 34 q 482 17 431 8 q 379 -1 331 -1 q 302 -1 268 2 q 234 6 201 14 q 167 21 136 35 q 104 49 81 69 q 57 90 42 117 q 27 145 27 182 z m 126 195 q 126 149 150 122 q 174 95 209 81 q 245 66 287 62 q 328 59 364 59 q 428 59 488 75 q 549 92 596 125 q 643 159 671 209 q 699 260 699 327 q 685 376 638 399 q 592 423 530 425 q 468 428 399 411 q 330 394 271 363 q 213 332 172 289 q 131 246 126 195 z m 207 520 q 207 483 230 464 q 254 445 291 445 q 312 443 347 449 q 381 455 420 466 q 459 478 499 493 q 538 508 572 525 q 605 543 628 561 q 651 579 657 597 q 657 618 647 635 q 638 651 616 651 q 592 663 554 669 q 516 676 472 675 q 429 674 384 665 q 339 656 302 638 q 265 619 239 590 q 213 561 207 520 z"},"\\":{"x_min":0,"x_max":628,"ha":628,"o":"m 540 -3 q 444 105 363 207 q 281 309 217 395 q 153 481 107 549 q 61 617 34 659 q 8 701 2 713 q -4 725 13 699 q 13 711 18 718 q 22 725 30 728 q 38 730 47 731 q 57 732 65 732 q 112 687 156 630 q 199 574 241 513 q 282 451 324 388 q 365 325 410 265 q 454 204 501 149 q 549 95 603 51 q 603 26 583 12 q 562 -3 540 -3 z"},"e":{"x_min":0,"x_max":676,"ha":676,"o":"m 26 160 q 18 239 42 314 q 65 390 114 447 q 162 505 230 539 q 299 572 380 570 q 394 570 417 566 q 439 562 465 554 q 491 546 516 533 q 541 521 560 503 q 579 485 589 463 q 599 441 594 414 q 554 386 501 375 q 449 364 395 360 q 341 355 289 352 q 237 349 199 334 q 160 319 139 288 q 118 256 126 196 q 141 143 174 117 q 208 92 252 86 q 297 81 347 91 q 397 102 446 118 q 494 135 536 153 q 578 172 605 184 q 618 184 627 174 q 636 165 636 152 q 611 110 562 77 q 512 44 449 23 q 387 3 319 -2 q 251 -7 191 8 q 132 22 87 60 q 42 97 26 160 z m 371 497 q 354 497 328 493 q 303 489 279 479 q 256 470 239 454 q 222 438 222 414 l 464 454 q 448 478 423 487 q 398 497 371 497 z"},"b":{"x_min":0,"x_max":702,"ha":702,"o":"m 231 9 q 225 11 207 10 q 189 9 165 9 q 141 9 111 12 q 81 15 50 24 q 45 80 42 146 q 40 213 40 285 q 39 357 40 433 q 40 509 41 583 q 41 656 41 726 q 40 795 38 855 q 34 883 49 895 q 64 906 83 906 q 103 906 118 896 q 134 886 131 868 l 139 341 q 177 391 232 436 q 287 480 347 513 q 406 545 466 561 q 525 577 572 569 q 619 561 648 524 q 678 487 678 416 q 678 367 655 322 q 633 277 596 237 q 559 196 512 161 q 465 126 415 97 q 365 68 317 46 q 270 23 231 9 z m 606 404 q 599 440 574 457 q 549 474 513 474 q 478 474 435 459 q 393 444 350 419 q 307 394 267 359 q 228 325 198 285 q 169 245 154 201 q 139 157 144 113 q 139 98 162 95 q 185 93 225 104 q 266 114 317 139 q 369 163 422 201 q 476 238 524 289 q 573 340 606 404 z"},"m":{"x_min":0,"x_max":973,"ha":973,"o":"m 32 20 q 31 60 35 121 q 38 182 41 251 q 43 321 42 392 q 42 463 35 521 q 35 544 51 552 q 66 561 88 561 q 96 561 101 542 q 106 522 110 498 q 113 473 116 448 q 119 424 122 413 q 138 442 172 466 q 206 489 248 502 q 290 516 334 518 q 379 521 416 509 q 453 497 477 470 q 500 443 500 397 q 516 427 555 456 q 594 484 643 506 q 692 528 745 541 q 798 553 841 550 q 885 548 912 527 q 939 507 938 463 l 965 9 q 965 7 949 3 q 933 0 913 -1 q 894 -2 877 0 q 860 3 860 13 q 858 66 861 125 q 864 185 865 245 q 865 306 861 365 q 856 424 839 477 q 811 475 776 468 q 741 462 706 446 q 671 430 638 400 q 605 370 580 320 q 555 270 539 197 q 522 124 522 21 q 518 5 500 0 q 481 -5 462 -3 q 442 -1 428 6 q 414 14 417 21 q 426 72 432 111 q 438 150 439 184 q 441 217 440 246 q 438 275 434 306 q 429 337 420 372 q 412 406 400 451 q 335 451 289 433 q 242 415 211 384 q 181 354 164 312 q 146 270 139 222 q 131 174 131 122 q 131 70 135 20 q 119 14 100 6 q 81 -1 62 -1 q 52 -1 46 3 q 40 7 32 20 z"},"#":{"x_min":0,"x_max":797,"ha":797,"o":"m 105 414 q 105 430 114 437 q 122 444 135 447 q 147 450 162 449 q 177 448 190 446 q 204 443 214 441 q 225 438 228 438 l 228 547 q 220 547 200 549 q 180 552 157 555 q 135 559 114 562 q 94 565 86 567 q 69 576 68 587 q 67 599 86 608 q 94 610 114 613 q 135 616 157 620 q 180 623 200 625 q 220 628 228 628 l 228 770 q 228 778 232 783 q 237 787 244 789 q 250 791 257 792 q 264 792 269 792 q 273 792 280 792 q 287 791 293 789 q 300 787 304 783 q 309 778 309 770 l 309 636 l 431 648 l 431 811 l 492 811 l 532 648 l 747 648 q 747 622 733 608 q 720 594 699 588 q 679 582 653 583 q 627 583 604 586 q 580 589 561 592 q 541 596 532 596 l 532 471 q 568 471 604 474 q 639 478 674 481 q 709 484 744 488 q 779 491 816 491 l 816 466 q 816 453 797 444 q 778 436 750 430 q 721 424 686 420 q 651 417 620 414 q 588 411 564 409 q 540 407 532 405 q 530 366 528 338 q 526 310 517 292 q 508 273 488 265 q 468 256 431 256 l 431 377 q 365 382 338 375 q 311 367 305 353 q 300 338 308 320 q 315 302 319 285 q 323 269 315 256 q 307 244 269 242 q 266 242 258 242 q 250 242 248 243 q 246 292 234 321 q 223 351 207 367 q 190 383 173 389 q 155 395 140 397 q 125 399 115 402 q 105 404 105 414 z m 414 589 q 404 589 387 587 q 369 585 352 582 q 334 579 321 575 q 309 571 309 567 l 309 438 q 336 438 361 439 q 387 439 407 448 q 427 456 439 474 q 451 492 451 527 q 451 548 450 560 q 448 572 444 579 q 440 585 433 587 q 426 589 414 589 z"},",":{"x_min":0,"x_max":223,"ha":223,"o":"m 59 105 q 66 121 76 124 q 85 126 99 126 q 107 126 116 124 q 125 121 132 116 q 139 110 141 103 q 144 95 140 84 q 133 68 122 49 q 111 30 99 10 q 87 -10 75 -28 q 62 -47 54 -61 q 51 -65 42 -74 q 34 -83 22 -91 q 11 -99 -2 -103 q -16 -106 -27 -102 z"},"n":{"x_min":0,"x_max":625,"ha":625,"o":"m 493 480 q 500 496 479 499 q 457 501 420 494 q 383 487 337 473 q 291 458 250 438 q 208 418 177 394 q 146 369 140 345 l 139 13 l 58 13 q 52 26 48 56 q 45 86 43 126 q 41 167 41 214 q 40 262 41 310 q 42 358 44 405 q 46 451 48 489 q 51 527 53 553 q 56 579 59 588 q 69 596 83 603 q 97 609 110 609 q 128 608 134 586 q 141 564 141 537 q 141 509 137 482 q 134 456 134 446 q 235 521 309 556 q 382 590 432 592 q 482 594 513 568 q 543 543 560 498 q 576 453 582 393 q 587 333 588 267 q 589 200 588 131 q 587 62 590 0 q 578 -6 574 -7 q 569 -8 564 -6 q 559 -5 550 -3 q 541 -1 522 0 q 511 48 509 109 q 508 171 509 235 q 510 300 508 363 q 506 427 493 480 z"},"h":{"x_min":0,"x_max":619,"ha":619,"o":"m 504 29 q 504 76 503 131 q 503 186 498 233 q 493 281 482 315 q 472 349 451 354 q 396 364 352 369 q 308 373 274 366 q 241 359 217 337 q 193 315 177 273 q 160 231 150 167 q 140 102 135 9 l 40 9 q 44 137 41 250 q 37 362 33 460 q 29 559 29 642 q 28 725 38 792 q 48 812 63 815 q 79 818 95 811 q 110 804 122 789 q 134 774 135 759 q 134 748 133 724 q 132 699 131 667 q 130 634 129 596 q 129 558 129 520 q 130 482 132 448 q 134 413 139 388 q 171 409 205 426 q 238 442 275 451 q 312 460 354 461 q 396 463 446 455 q 495 430 523 406 q 551 382 565 354 q 579 326 583 294 q 588 263 589 222 q 591 182 593 131 q 596 80 606 17 q 602 8 585 2 q 568 -4 550 -4 q 532 -4 518 4 q 504 12 504 29 z"},"z":{"x_min":0,"x_max":619,"ha":619,"o":"m 110 149 q 154 192 194 228 q 234 263 271 296 q 308 329 343 364 q 378 399 413 442 q 370 444 322 440 q 274 437 229 431 q 183 426 142 421 q 102 417 73 417 q 44 417 31 424 q 18 431 26 447 q 35 464 53 477 q 70 489 87 489 q 92 489 97 490 q 103 491 116 493 q 130 495 155 498 q 180 501 222 505 q 265 510 329 516 q 393 521 485 528 q 523 523 536 508 q 549 493 542 470 q 535 446 513 417 q 491 387 459 354 q 427 320 389 285 q 351 250 312 215 q 273 181 238 148 q 203 115 177 88 q 220 85 253 85 q 287 85 316 86 q 345 88 372 90 q 399 92 429 92 q 459 93 494 91 q 529 90 575 84 q 582 84 590 80 q 599 75 604 66 q 609 57 611 43 q 612 29 605 12 q 564 17 511 15 q 458 13 401 9 q 345 5 288 0 q 231 -4 184 -4 q 137 -4 102 2 q 67 9 54 25 q 40 42 52 72 q 64 103 110 149 z"},"B":{"x_min":0,"x_max":889,"ha":889,"o":"m 79 20 q 76 98 72 181 q 67 264 65 354 q 62 444 63 544 q 64 644 72 755 q 59 755 48 758 q 37 761 37 781 q 37 796 48 803 q 60 811 79 811 q 151 826 230 830 q 309 833 382 825 q 456 817 520 800 q 584 782 627 757 q 670 731 687 699 q 703 667 683 629 q 663 592 601 550 q 538 509 423 466 q 573 458 667 436 q 761 414 809 383 q 856 353 863 316 q 869 279 845 241 q 821 202 771 164 q 721 126 655 94 q 589 62 513 37 q 437 13 359 1 q 282 -11 209 -7 q 137 -4 79 20 z m 189 80 q 387 92 512 128 q 638 164 696 208 q 754 253 747 297 q 739 342 670 370 q 602 397 473 400 q 345 403 160 365 z m 298 751 q 293 751 272 751 q 252 751 229 750 q 205 748 185 744 q 164 739 160 730 l 147 484 q 178 484 223 491 q 268 497 317 509 q 366 521 415 537 q 464 554 502 573 q 541 593 565 615 q 590 638 590 661 q 590 684 572 699 q 555 714 527 724 q 500 734 466 740 q 433 745 400 748 q 367 750 340 750 q 312 751 298 751 z"},"K":{"x_min":0,"x_max":757,"ha":757,"o":"m 54 28 q 59 43 62 83 q 65 123 67 180 q 69 236 71 305 q 72 373 74 443 q 76 514 79 582 q 81 649 86 705 q 91 761 98 799 q 104 838 115 851 q 118 862 129 868 q 141 874 154 876 q 168 879 181 879 q 193 879 198 879 q 197 862 196 833 q 194 805 192 770 q 190 734 188 696 q 186 657 183 622 q 181 586 179 556 q 177 525 176 507 q 255 548 329 594 q 402 641 467 680 q 531 720 583 746 q 636 772 673 772 q 686 772 695 763 q 704 753 704 740 q 704 721 682 699 q 659 677 622 652 q 584 628 537 602 q 489 576 440 551 q 391 525 343 500 q 296 476 258 453 q 221 430 198 410 q 176 391 176 375 q 197 361 248 339 q 299 316 362 288 q 426 260 493 227 q 561 194 617 162 q 673 130 708 99 q 744 67 743 41 q 743 31 737 26 q 730 21 722 20 q 714 18 706 18 q 697 18 693 18 q 654 18 619 31 q 584 44 548 65 q 513 86 475 113 q 437 140 391 167 q 345 194 290 220 q 235 245 166 264 l 166 20 q 163 15 144 9 q 124 3 102 1 q 80 -1 64 4 q 48 10 54 28 z"},"R":{"x_min":0,"x_max":892,"ha":892,"o":"m 178 41 q 178 31 170 26 q 163 21 154 20 q 145 18 136 18 q 127 18 123 18 q 98 18 86 43 q 74 68 71 116 q 67 163 69 229 q 70 296 72 377 q 73 458 71 552 q 68 646 57 750 q 68 771 82 772 q 95 774 106 767 q 118 759 128 746 q 138 733 144 725 q 174 754 228 769 q 281 784 344 788 q 407 792 473 785 q 538 777 592 762 q 646 746 681 723 q 717 699 720 670 q 724 641 688 606 q 653 572 564 535 q 551 529 522 519 q 494 509 458 497 q 422 484 383 471 q 345 457 310 444 q 274 431 248 419 q 222 408 211 400 q 211 395 216 390 q 221 386 239 375 q 257 365 294 346 q 331 326 396 291 q 460 256 557 202 q 653 147 792 67 q 797 63 804 59 q 812 54 818 47 q 824 40 829 33 q 834 25 834 17 q 834 4 824 -2 q 814 -9 801 -12 q 787 -15 772 -15 q 758 -15 748 -15 q 733 -15 699 6 q 664 26 616 58 q 568 90 512 129 q 455 168 396 206 q 338 243 281 274 q 225 305 178 321 z m 160 648 q 151 635 149 612 q 146 589 150 564 q 153 540 161 519 q 168 497 178 487 q 188 483 219 490 q 250 496 292 509 q 334 521 382 540 q 430 558 473 578 q 517 598 551 618 q 586 639 601 657 q 616 675 608 689 q 600 703 557 711 q 535 711 500 711 q 466 712 426 711 q 387 710 345 707 q 303 704 266 697 q 229 689 201 678 q 173 666 160 648 z"},"T":{"x_min":0,"x_max":778,"ha":778,"o":"m 281 603 l 21 618 q 16 618 12 623 q 8 627 5 634 q 3 641 1 647 q 0 654 0 659 q 0 676 11 692 q 21 708 37 708 q 126 704 216 696 q 306 688 396 685 q 486 681 576 684 q 665 687 753 703 q 760 701 765 691 q 770 682 772 669 q 775 656 777 643 q 778 630 778 623 q 718 605 672 602 q 627 599 584 600 q 541 601 496 602 q 450 603 391 594 q 389 562 384 517 q 380 472 375 419 q 371 367 366 311 q 361 254 358 200 q 355 146 354 96 q 354 47 357 9 l 243 0 z"},"P":{"x_min":0,"x_max":797,"ha":797,"o":"m 459 750 q 474 750 503 748 q 532 746 567 740 q 603 734 640 725 q 677 715 708 699 q 738 684 758 661 q 777 639 777 608 q 777 542 743 493 q 708 443 652 407 q 597 371 527 348 q 458 324 388 311 q 318 297 255 292 q 192 286 149 286 l 144 13 q 144 4 131 1 q 118 -2 101 -2 q 84 -2 68 0 q 53 1 47 0 q 47 70 46 140 q 46 209 47 284 q 54 376 57 447 q 60 518 70 569 q 80 621 102 656 q 124 690 167 711 q 211 732 281 741 q 352 750 459 750 z m 169 552 q 167 537 162 517 q 157 496 153 474 q 148 452 147 431 q 146 410 151 394 q 157 378 172 369 q 188 360 216 364 q 244 364 290 368 q 336 371 387 379 q 438 388 490 403 q 542 418 583 441 q 625 464 651 496 q 678 527 678 570 q 671 602 646 624 q 621 646 584 658 q 548 671 504 675 q 460 680 415 677 q 369 674 326 664 q 283 654 249 638 q 215 622 193 600 q 172 578 169 552 z"},"|":{"x_min":0,"x_max":182,"ha":182,"o":"m 63 1196 l 136 1196 l 136 -81 q 136 -83 126 -83 q 116 -83 104 -83 q 92 -83 81 -83 q 69 -84 67 -85 z"},"t":{"x_min":0,"x_max":506,"ha":506,"o":"m 21 392 l 20 476 l 202 476 l 202 791 q 206 803 216 812 q 227 822 238 827 q 250 832 263 829 q 275 825 284 811 q 294 771 298 730 q 302 689 303 649 q 304 608 304 568 q 305 527 308 488 q 326 491 351 492 q 375 492 400 493 q 425 493 449 494 q 473 494 492 496 l 488 408 l 311 413 q 310 353 311 301 q 312 250 313 201 q 314 152 315 102 q 316 51 316 -9 q 276 -26 255 -12 q 234 2 226 35 q 217 68 217 116 q 217 164 218 214 q 220 265 220 312 q 220 358 211 392 z"},"M":{"x_min":0,"x_max":1034,"ha":1034,"o":"m 885 61 q 883 78 878 115 q 874 151 868 197 q 862 243 856 294 q 850 345 843 391 q 837 437 832 473 q 827 510 825 527 q 825 553 824 573 q 822 594 814 598 q 806 603 788 586 q 771 569 739 521 q 707 472 659 385 q 610 298 541 162 q 534 148 522 144 q 510 140 496 148 q 481 156 466 179 q 451 202 439 243 l 215 721 q 207 706 200 674 q 193 642 188 600 q 182 559 177 511 q 172 464 168 418 q 164 373 161 333 q 158 292 156 264 q 151 232 152 203 q 152 173 154 147 q 155 121 155 100 q 155 78 148 64 q 141 50 124 43 q 106 36 74 39 q 54 39 43 49 q 32 60 34 81 q 39 119 46 179 q 53 239 62 308 q 70 377 79 448 q 88 519 96 578 q 104 637 108 678 q 113 720 115 730 q 119 758 124 777 q 129 797 139 810 q 148 822 165 828 q 182 833 209 833 q 246 814 278 775 q 310 736 337 687 q 364 638 389 583 q 413 529 435 481 q 457 433 478 396 q 499 359 520 345 l 764 770 q 797 794 822 787 q 847 779 865 748 q 884 717 897 666 q 911 615 922 555 q 933 494 940 427 q 948 360 956 297 q 963 233 971 177 q 979 121 988 81 q 995 40 982 21 q 969 2 949 2 q 930 2 910 18 q 891 33 885 61 z"},"g":{"x_min":0,"x_max":645,"ha":645,"o":"m 388 -440 q 426 -439 451 -428 q 476 -416 491 -396 q 506 -376 512 -350 q 519 -323 518 -292 q 517 -273 517 -235 q 518 -197 519 -149 q 520 -102 521 -49 q 521 3 522 51 q 523 99 523 136 q 523 174 522 193 q 487 161 443 126 q 399 92 348 64 q 296 37 236 21 q 177 5 109 10 q 73 10 51 27 q 28 45 28 82 q 30 124 48 173 q 66 223 96 272 q 126 321 165 368 q 204 414 249 449 q 293 484 340 505 q 388 526 434 526 q 480 526 523 500 q 565 475 600 417 q 613 220 617 75 q 621 -69 616 -171 q 611 -273 598 -338 q 585 -402 564 -440 q 544 -479 516 -495 q 488 -512 454 -517 q 419 -522 378 -522 q 337 -522 291 -526 q 274 -526 244 -526 q 214 -526 183 -520 q 152 -514 130 -499 q 107 -483 107 -454 z m 430 442 q 392 442 351 420 q 310 397 271 363 q 232 329 200 287 q 168 245 147 206 q 127 166 121 134 q 115 103 131 89 q 146 80 180 86 q 214 93 256 110 q 298 128 343 156 q 388 185 425 219 q 462 253 486 292 q 510 331 510 371 q 510 386 502 399 q 495 412 484 422 q 473 432 458 437 q 444 442 430 442 z"},"j":{"x_min":0,"x_max":223,"ha":223,"o":"m -139 -350 q -139 -349 -136 -342 q -134 -335 -131 -327 q -128 -318 -125 -312 q -122 -305 -122 -304 q -102 -319 -80 -334 q -59 -350 -35 -361 q -12 -373 13 -380 q 37 -388 63 -388 q 82 -388 96 -374 q 110 -359 120 -338 q 129 -316 134 -292 q 139 -269 139 -249 q 139 -146 131 -47 q 123 52 115 149 q 106 246 101 344 q 96 442 101 547 q 98 563 106 574 q 114 585 127 591 q 141 597 155 599 q 170 602 179 602 q 168 522 168 434 q 169 345 175 254 q 182 163 191 74 q 200 -15 206 -95 q 212 -176 211 -243 q 211 -311 198 -358 q 186 -406 158 -430 q 131 -454 82 -447 q 60 -447 27 -443 q -5 -438 -38 -427 q -70 -416 -98 -397 q -126 -378 -139 -350 z m 135 863 q 148 853 152 834 q 156 816 151 803 q 146 789 132 785 q 118 781 97 801 q 97 810 98 820 q 100 831 104 841 q 107 851 115 857 q 123 863 135 863 z"},"i":{"x_min":0,"x_max":189,"ha":189,"o":"m 143 573 q 151 453 158 318 q 165 183 170 45 q 165 25 150 17 q 135 8 117 7 q 100 7 84 13 q 69 19 65 28 l 65 573 z m 29 739 q 29 762 42 771 q 55 781 72 783 q 90 784 107 779 q 125 774 133 768 q 142 735 130 721 q 118 706 99 705 q 80 703 60 713 q 39 723 29 739 z"},"y":{"x_min":0,"x_max":686,"ha":686,"o":"m 290 -460 q 276 -493 258 -506 q 240 -519 226 -517 q 211 -516 204 -501 q 196 -487 204 -467 q 218 -411 236 -352 q 254 -292 273 -233 q 293 -175 312 -119 q 332 -62 350 -13 q 339 -2 319 23 q 299 48 273 81 q 248 114 219 154 q 190 193 162 233 q 134 272 108 310 q 82 348 63 378 q 45 408 35 427 q 25 446 28 450 l 74 497 q 97 476 125 445 q 153 414 183 378 q 212 343 242 305 q 272 267 300 230 q 327 193 350 161 q 373 128 389 104 q 407 144 417 167 q 428 189 436 209 q 443 229 452 252 q 461 274 477 313 q 493 353 520 413 q 547 474 592 570 q 599 573 612 575 q 626 576 639 573 q 651 569 659 559 q 666 549 662 530 l 290 -460 z"},"@":{"x_min":0,"x_max":1304,"ha":1304,"o":"m 33 253 q 33 332 56 406 q 78 479 119 544 q 159 608 214 662 q 270 715 335 753 q 401 791 475 812 q 549 833 626 833 q 698 833 773 816 q 849 799 910 761 q 972 724 1011 665 q 1050 605 1050 522 q 1050 483 1033 455 q 1016 427 988 409 q 960 391 925 383 q 890 375 853 376 q 816 378 782 389 q 748 399 723 418 q 648 355 591 331 q 533 306 492 308 q 451 310 428 333 q 405 356 402 390 q 399 424 417 462 q 434 501 473 534 q 513 566 575 587 q 637 608 723 607 q 758 610 776 602 q 794 593 803 577 q 812 561 817 541 q 821 521 829 505 q 837 488 851 477 q 865 465 895 465 q 913 465 930 469 q 946 473 959 481 q 973 489 980 503 q 988 517 988 536 q 982 588 949 630 q 916 673 868 704 q 819 734 762 752 q 705 771 652 775 q 550 775 456 738 q 361 701 290 634 q 218 567 175 476 q 133 384 133 275 q 147 231 175 199 q 203 166 238 143 q 272 120 312 105 q 352 90 391 81 q 430 71 465 66 q 500 62 527 59 q 630 67 723 79 q 816 91 901 116 q 986 142 1063 186 q 1140 230 1210 304 q 1218 308 1228 307 q 1238 307 1248 303 q 1258 299 1265 292 q 1271 284 1272 274 q 1271 233 1242 199 q 1212 164 1162 135 q 1112 106 1049 84 q 985 62 917 44 q 849 27 781 17 q 714 6 657 0 q 600 -6 559 -6 q 518 -6 502 -1 q 462 -1 412 2 q 361 6 310 16 q 258 26 208 44 q 158 62 119 89 q 80 117 57 158 q 33 198 33 253 z m 701 513 q 697 532 675 536 q 653 540 624 533 q 595 526 562 511 q 530 495 506 475 q 481 455 469 432 q 457 409 467 389 q 477 376 510 380 q 543 384 581 401 q 619 419 654 447 q 688 476 701 513 z"},".":{"x_min":0,"x_max":176,"ha":176,"o":"m 56 -1 q 31 2 28 16 q 25 30 34 46 q 42 62 58 73 q 74 85 88 81 q 113 81 123 70 q 132 60 132 40 q 132 25 125 17 q 117 9 106 5 q 95 1 81 0 q 67 -1 56 -1 z"},"p":{"x_min":0,"x_max":696,"ha":696,"o":"m 75 516 q 79 520 90 524 q 101 529 112 529 q 124 528 135 520 q 146 511 150 489 q 290 536 390 543 q 489 551 552 530 q 614 509 642 465 q 669 422 664 368 q 659 313 624 254 q 588 194 524 142 q 460 89 370 48 q 279 8 166 -9 q 166 -22 167 -52 q 167 -81 168 -118 q 169 -155 169 -196 q 170 -237 171 -275 q 172 -312 173 -343 q 175 -373 177 -388 q 183 -433 159 -452 q 136 -471 95 -466 z m 413 468 q 375 468 329 459 q 283 450 244 429 q 204 408 179 373 q 153 337 156 284 l 156 73 q 292 104 379 145 q 466 186 512 229 q 559 273 569 316 q 580 359 563 393 q 547 427 507 447 q 467 468 413 468 z"},"X":{"x_min":0,"x_max":750,"ha":750,"o":"m 364 274 q 333 248 305 205 q 276 162 248 120 q 219 78 188 48 q 156 18 118 18 q 81 18 64 29 q 48 41 54 81 l 285 355 q 223 434 179 488 q 136 543 108 579 q 80 614 65 634 q 50 653 42 663 q 35 673 34 675 q 33 677 33 678 q 33 690 42 699 q 52 708 65 711 q 78 715 92 714 q 105 714 115 709 l 350 426 l 641 771 l 712 713 l 419 365 q 447 327 480 297 q 514 268 547 242 q 581 217 613 194 q 645 172 668 148 q 692 125 707 99 q 722 73 722 42 q 718 14 696 4 q 675 -6 642 20 z"},"*":{"x_min":0,"x_max":635,"ha":635,"o":"m 274 320 q 253 302 233 274 q 214 247 193 221 q 173 195 148 177 q 124 158 92 158 q 87 158 79 166 q 71 174 71 179 q 83 200 100 232 q 117 264 135 300 q 153 336 169 373 q 185 410 193 442 q 193 443 194 447 q 194 451 194 453 q 194 471 182 483 q 169 496 150 507 q 132 519 111 530 q 91 541 75 557 q 59 572 51 593 q 43 614 51 645 q 81 644 104 636 q 126 628 144 618 q 161 607 176 596 q 190 584 205 576 q 220 567 236 563 q 253 560 274 564 l 375 827 q 379 837 387 842 q 395 848 404 850 q 414 853 424 853 q 435 854 443 854 q 443 815 438 781 q 432 746 424 711 q 417 677 411 642 q 405 606 405 568 q 438 568 466 575 q 495 581 524 589 q 553 598 582 604 q 610 610 642 610 q 642 571 623 550 q 604 528 577 516 q 550 503 518 495 q 485 486 458 474 q 431 462 412 441 q 394 421 394 384 q 394 358 400 334 q 407 310 415 285 q 423 261 430 236 q 437 212 437 187 q 437 165 419 157 q 401 148 375 138 q 351 149 341 175 q 331 201 324 229 q 317 257 308 283 q 299 309 274 320 z"},"Y":{"x_min":0,"x_max":668,"ha":668,"o":"m 339 -22 q 331 -22 317 -18 q 303 -13 290 -5 q 276 3 268 13 q 259 23 264 35 q 269 43 276 64 q 284 86 294 116 q 304 146 314 180 q 325 214 335 248 q 346 281 354 312 q 363 342 369 363 l 43 696 q 31 710 34 718 q 37 726 46 730 q 55 734 65 735 q 75 736 79 736 q 96 736 112 733 q 128 730 146 721 q 165 712 188 693 q 211 674 243 641 q 274 608 317 561 q 359 513 416 444 q 453 553 480 623 q 508 692 530 734 q 552 775 570 793 q 589 811 608 813 q 620 813 631 811 q 643 809 647 793 q 609 712 575 610 q 540 509 503 399 q 467 290 427 181 q 387 72 339 -22 z"},"c":{"x_min":0,"x_max":791,"ha":791,"o":"m 26 192 q 22 237 43 282 q 63 326 100 367 q 137 407 186 442 q 235 477 290 501 q 345 525 401 538 q 457 550 507 545 q 525 545 544 543 q 562 541 577 533 q 591 525 600 511 q 608 496 608 471 q 608 458 602 448 q 596 438 586 430 q 577 421 566 414 q 556 407 547 400 q 544 414 541 426 q 538 438 532 448 q 525 457 515 462 q 505 468 488 468 q 431 456 364 432 q 297 408 241 375 q 185 342 150 300 q 116 259 124 211 q 124 168 141 142 q 157 115 184 101 q 211 86 246 81 q 280 76 316 76 q 372 76 424 93 q 477 109 526 130 q 576 150 624 167 q 672 184 718 184 q 726 184 734 183 q 742 182 749 177 q 755 173 757 165 q 760 156 757 142 q 752 124 722 106 q 692 89 649 73 q 605 58 554 44 q 503 30 455 21 q 406 11 368 5 q 329 0 311 0 q 268 0 218 10 q 168 20 125 42 q 83 64 55 101 q 26 138 26 192 z"},"!":{"x_min":0,"x_max":169,"ha":169,"o":"m 77 82 q 87 82 100 82 q 112 81 124 78 q 136 75 144 69 q 151 62 151 51 q 144 24 127 10 q 110 -4 92 -7 q 74 -11 59 -5 q 43 1 37 13 q 31 25 40 43 q 48 62 77 82 z m 135 1100 q 132 1088 130 1050 q 129 1013 128 958 q 128 904 128 838 q 128 771 127 702 q 127 633 126 565 q 125 497 123 440 q 121 384 118 342 q 114 301 108 284 l 26 284 q 26 385 31 486 q 35 587 40 688 q 45 789 49 891 q 54 992 54 1095 z"},"/":{"x_min":0,"x_max":568,"ha":568,"o":"m 25 51 q 27 59 49 96 q 71 133 106 188 q 142 243 186 312 q 230 381 277 452 q 323 522 368 590 q 412 658 448 712 q 484 767 507 801 q 530 836 534 841 q 544 835 536 803 q 528 771 507 719 q 485 668 453 603 q 420 538 380 468 q 341 397 297 327 q 253 256 209 193 q 165 130 124 80 q 82 29 48 0 q 39 0 34 6 q 29 13 27 21 q 25 30 25 39 q 25 47 25 51 z"},"[":{"x_min":0,"x_max":531,"ha":531,"o":"m 38 951 q 78 957 126 968 q 175 979 225 990 q 274 1001 322 1009 q 369 1018 408 1018 q 408 1010 410 1001 q 411 993 411 985 q 411 978 409 971 q 407 965 400 961 q 386 957 362 952 q 338 947 310 941 q 281 936 251 928 q 222 921 195 914 q 168 906 146 898 q 124 890 113 881 q 108 768 118 660 q 127 552 139 445 q 151 338 163 230 q 174 122 174 9 l 484 51 q 484 46 488 32 q 491 18 494 3 q 496 -12 496 -24 q 496 -36 489 -38 l 79 -103 z"},"6":{"x_min":0,"x_max":784,"ha":784,"o":"m 26 357 q 26 405 42 458 q 59 511 87 561 q 115 611 154 657 q 192 702 238 737 q 283 771 333 792 q 383 812 434 812 q 451 812 463 805 q 475 799 473 770 q 399 756 336 716 q 273 676 227 618 q 181 560 154 489 q 128 418 128 344 q 128 325 137 291 q 146 257 161 224 q 176 190 196 166 q 217 141 240 141 q 260 156 285 182 q 311 208 342 237 q 373 267 410 297 q 446 327 487 352 q 528 376 574 391 q 619 406 668 407 q 689 407 706 397 q 723 387 734 370 q 745 354 751 333 q 757 312 757 293 q 746 215 709 158 q 672 101 618 63 q 564 26 499 9 q 434 -8 367 -4 q 300 0 238 24 q 176 49 128 94 q 80 139 52 205 q 24 271 26 357 z m 636 326 q 611 326 581 312 q 551 299 520 277 q 489 256 458 229 q 428 202 401 176 q 374 150 353 128 q 332 105 320 93 q 365 85 425 93 q 484 102 539 126 q 594 150 633 190 q 673 229 677 284 q 677 326 636 326 z"},"r":{"x_min":0,"x_max":689,"ha":689,"o":"m 33 559 q 33 577 46 583 q 60 589 75 589 q 101 589 116 568 q 131 547 139 519 q 147 491 151 464 q 154 438 156 426 q 192 459 237 487 q 282 516 337 536 q 393 556 460 565 q 528 574 612 569 q 639 575 652 558 q 665 541 667 518 q 669 494 660 472 q 650 449 632 445 q 598 471 549 478 q 501 485 449 478 q 396 470 346 449 q 295 428 255 396 q 216 363 193 321 q 170 279 174 230 q 174 200 178 171 q 182 143 186 114 q 190 85 194 56 q 198 27 198 -2 q 172 -4 156 -9 q 140 -14 129 -13 q 118 -13 110 -3 q 103 6 93 34 q 92 41 88 75 q 84 109 79 158 q 73 207 66 265 q 60 323 53 379 q 47 436 42 483 q 36 530 33 559 z"},"2":{"x_min":0,"x_max":716,"ha":716,"o":"m 47 61 q 88 97 139 152 q 189 207 237 269 q 285 331 323 394 q 361 457 376 511 q 392 564 378 602 q 364 640 309 651 q 273 651 247 641 q 220 631 198 615 q 176 600 157 581 q 138 562 117 547 q 97 531 73 521 q 50 511 20 511 q 21 551 52 589 q 84 627 130 656 q 177 686 231 702 q 286 718 334 713 q 383 708 417 679 q 451 649 457 588 q 457 521 434 454 q 411 388 375 325 q 340 263 295 206 q 251 149 209 101 q 266 96 323 111 q 380 127 436 147 q 491 168 546 186 q 602 204 656 204 q 671 204 684 197 q 697 190 697 172 q 697 153 685 141 q 672 128 652 120 q 633 112 610 109 q 587 105 566 104 q 546 102 531 102 q 516 102 513 101 q 502 99 474 90 q 446 82 409 71 q 371 61 328 49 q 284 38 241 29 q 197 21 158 16 q 119 11 92 13 q 64 15 51 26 q 38 37 47 61 z"},"{":{"x_min":0,"x_max":440,"ha":440,"o":"m 526 -169 q 449 -164 399 -142 q 349 -119 317 -83 q 285 -48 269 -2 q 253 43 245 95 q 236 147 233 204 q 229 260 224 316 q 216 331 193 348 q 170 365 144 386 q 117 407 94 434 q 71 460 63 493 q 67 523 78 544 q 88 564 102 579 q 115 594 131 604 q 146 615 161 625 q 176 636 189 648 q 202 661 210 680 q 208 726 203 785 q 197 844 196 905 q 194 967 201 1026 q 208 1085 231 1131 q 254 1177 297 1205 q 341 1233 412 1233 l 412 1167 q 394 1168 375 1166 q 355 1163 338 1148 q 321 1134 308 1101 q 294 1068 287 1010 q 279 951 280 861 q 280 771 291 640 q 291 613 272 597 q 253 581 230 567 q 207 553 188 538 q 169 523 169 501 q 163 489 169 473 q 176 457 189 440 q 202 423 220 406 q 237 390 255 377 q 272 364 287 356 q 302 349 310 350 q 297 229 305 152 q 313 75 334 29 q 354 -18 383 -39 q 412 -61 441 -68 q 470 -76 494 -76 q 519 -76 531 -80 l 526 -169 z"},"9":{"x_min":0,"x_max":712,"ha":712,"o":"m 302 0 q 286 3 274 19 q 263 34 263 57 q 308 84 355 117 q 402 149 441 191 q 480 232 507 285 q 534 337 539 404 q 498 406 455 400 q 411 395 368 387 q 325 380 283 374 q 240 368 200 372 q 159 375 123 390 q 86 404 54 438 q 30 470 40 508 q 49 547 81 585 q 112 623 160 657 q 207 691 259 715 q 311 738 360 748 q 409 758 445 747 q 521 724 566 680 q 610 636 629 580 q 647 523 644 459 q 640 396 618 332 q 597 268 562 208 q 527 149 485 104 q 442 59 395 30 q 348 2 302 0 z m 151 472 q 190 454 239 449 q 287 444 337 449 q 388 453 438 466 q 489 479 535 497 q 543 529 539 559 q 535 589 520 613 q 505 637 479 652 q 453 668 417 670 q 368 670 320 660 q 272 650 235 627 q 197 604 174 566 q 151 528 151 472 z"}," ":{"x_min":0,"x_max":500,"ha":500,"o":""},"I":{"x_min":0,"x_max":189,"ha":189,"o":"m 47 20 q 40 34 37 71 q 34 107 33 157 q 31 206 32 265 q 33 323 35 382 q 36 441 38 497 q 40 552 42 594 q 45 637 46 663 q 47 688 47 689 q 62 698 73 704 q 84 710 99 710 q 107 710 118 706 q 128 702 128 689 l 128 20 q 128 7 118 3 q 107 -1 99 -1 q 84 -1 73 5 q 62 11 47 20 z"},"H":{"x_min":0,"x_max":757,"ha":757,"o":"m 68 324 q 51 327 38 333 q 25 339 25 354 q 25 366 35 379 q 44 392 55 405 q 66 418 76 433 q 86 448 88 466 q 89 479 91 505 q 93 532 95 566 q 98 601 100 638 q 102 676 104 710 q 105 744 107 771 q 108 798 108 811 q 115 818 126 829 q 138 839 150 845 q 162 851 173 849 q 184 848 189 831 l 182 446 q 186 447 209 447 q 232 447 267 448 q 301 448 342 450 q 384 452 423 457 q 462 461 494 468 q 526 475 544 486 l 544 872 q 547 880 558 884 q 569 889 584 891 q 599 893 613 893 q 627 893 635 892 q 635 869 636 821 q 638 773 640 714 q 642 654 644 588 q 646 521 648 462 q 650 402 652 354 q 654 307 655 284 q 659 220 672 159 q 685 98 716 41 q 690 32 664 26 q 637 20 595 20 q 561 104 548 200 q 536 296 534 385 q 483 386 442 386 q 401 387 362 384 q 323 381 282 372 q 240 362 189 345 q 183 273 188 197 q 192 121 209 41 l 112 -8 z"},"4":{"x_min":0,"x_max":851,"ha":851,"o":"m 460 238 q 409 238 372 238 q 334 238 298 239 q 263 239 225 239 q 188 239 137 239 q 129 239 121 240 q 112 241 105 244 q 98 247 93 253 q 89 259 89 270 q 138 332 185 396 q 231 459 275 515 q 318 571 357 615 q 396 659 430 682 q 463 704 489 701 q 515 697 532 659 q 550 621 557 544 q 564 467 561 341 l 830 345 q 830 340 829 330 q 828 319 825 309 q 822 299 818 291 q 814 283 809 282 l 582 264 q 573 240 568 206 q 563 172 561 134 q 558 97 557 60 q 556 22 556 -8 q 548 -8 532 -11 q 517 -15 500 -17 q 484 -20 471 -18 q 458 -16 455 -4 z m 460 588 q 434 552 395 517 q 356 482 320 448 q 283 413 254 377 q 225 342 217 304 q 275 303 335 310 q 396 317 460 324 z"},"~":{"x_min":0,"x_max":556,"ha":556,"o":"m 257 642 q 232 663 214 678 q 195 692 176 691 q 157 689 134 667 q 111 646 76 594 q 72 594 65 595 q 59 596 52 599 q 45 602 39 606 q 33 611 31 619 q 50 678 86 723 q 123 768 164 784 q 181 791 196 785 q 211 779 226 767 q 241 755 255 739 q 270 723 285 708 q 300 693 316 684 q 332 674 350 674 q 377 674 392 682 q 407 690 420 707 q 433 723 448 746 q 463 770 490 799 q 494 799 500 796 q 507 794 513 790 q 519 785 522 780 q 526 775 526 771 q 531 743 520 716 q 508 689 485 667 q 463 645 433 629 q 402 613 371 608 q 339 603 309 610 q 279 617 257 642 z"},"D":{"x_min":0,"x_max":811,"ha":811,"o":"m 47 778 q 51 778 63 778 q 76 778 89 776 q 103 773 114 768 q 125 762 128 750 q 154 759 196 767 q 238 774 289 778 q 340 781 396 780 q 452 778 507 769 q 562 760 611 741 q 660 723 698 692 q 735 662 757 619 q 779 576 779 517 q 784 463 762 411 q 740 358 699 310 q 658 261 603 217 q 547 173 485 137 q 423 101 358 73 q 293 45 234 29 q 176 13 126 9 q 77 5 47 17 z m 697 507 q 690 566 657 606 q 624 646 575 668 q 526 691 467 700 q 408 708 350 706 q 291 704 238 694 q 186 684 149 669 l 149 87 q 189 87 246 104 q 302 120 363 149 q 424 179 484 219 q 544 260 591 306 q 639 353 668 404 q 697 455 697 507 z"},"^":{"x_min":0,"x_max":384,"ha":384,"o":"m 21 666 q 21 681 34 703 q 47 726 70 750 q 94 773 126 797 q 159 821 198 839 q 225 822 245 809 q 265 796 282 780 q 300 764 318 741 q 336 719 358 683 q 366 668 367 655 q 367 643 361 635 q 355 627 344 626 q 333 625 317 634 q 300 646 290 653 q 280 660 274 665 q 269 669 264 674 q 260 679 251 687 q 243 695 229 710 q 215 725 189 750 q 163 731 144 716 q 125 700 111 685 q 98 670 88 655 q 79 640 72 622 q 50 622 36 628 q 21 635 21 666 z"},"0":{"x_min":0,"x_max":789,"ha":789,"o":"m 47 232 q 50 282 63 340 q 76 398 99 456 q 121 514 153 567 q 185 620 227 661 q 269 702 320 727 q 372 751 435 751 q 517 751 576 719 q 636 688 675 636 q 714 584 732 517 q 751 450 751 379 q 751 286 720 215 q 689 145 634 96 q 578 48 501 23 q 425 -2 333 -2 q 288 -2 236 12 q 185 25 141 54 q 98 82 70 126 q 43 171 47 232 z m 118 224 q 118 172 139 140 q 159 107 193 89 q 227 71 268 65 q 310 59 353 59 q 521 59 605 146 q 690 232 690 392 q 693 540 619 619 q 545 697 404 689 q 364 696 328 671 q 291 646 259 604 q 228 561 202 505 q 176 450 157 396 q 139 343 128 296 q 118 250 118 224 z"},"F":{"x_min":0,"x_max":865,"ha":865,"o":"m 115 203 q 71 209 57 219 q 43 229 48 242 q 54 256 73 273 q 93 291 116 313 q 116 366 106 417 q 97 468 84 518 q 72 568 62 619 q 53 669 53 721 q 53 752 65 763 q 78 773 109 773 q 127 773 134 767 q 142 761 144 751 q 146 741 147 730 q 147 719 150 709 q 153 699 162 693 q 171 687 189 687 q 271 688 353 700 q 435 713 516 726 q 598 739 679 748 q 761 757 845 750 q 846 727 850 709 q 854 692 853 681 q 853 670 845 666 q 837 662 813 666 q 789 665 749 664 q 708 662 659 660 q 609 657 554 654 q 499 650 445 646 q 392 641 343 634 q 294 627 257 618 q 220 608 197 597 q 175 586 175 571 q 175 564 176 545 q 177 525 179 501 q 181 477 184 450 q 188 423 192 401 q 196 379 202 364 q 208 350 215 350 q 284 350 355 361 q 427 373 499 388 q 570 402 642 414 q 713 426 783 426 q 785 426 785 417 q 784 408 783 397 q 782 386 782 376 q 781 367 783 367 q 753 351 702 339 q 651 327 592 319 q 532 311 470 304 q 408 297 355 289 q 303 280 265 270 q 227 259 216 243 l 202 4 q 194 -4 184 -6 q 174 -9 163 -8 q 151 -8 139 -7 q 127 -6 115 -6 l 115 203 z"},"`":{"x_min":0,"x_max":215,"ha":215,"o":"m 185 655 l 164 603 q 133 624 114 638 q 96 651 85 662 q 74 673 68 682 q 62 691 59 704 q 57 717 58 729 q 60 740 65 747 q 71 753 81 751 q 90 750 103 735 z"},"k":{"x_min":0,"x_max":768,"ha":768,"o":"m 60 456 q 60 506 56 556 q 53 605 48 655 q 44 705 41 754 q 37 804 37 854 q 37 875 48 884 q 59 893 78 893 q 80 893 88 893 q 97 893 99 892 q 111 840 117 783 q 122 727 126 664 q 130 601 134 532 q 138 463 147 388 q 165 396 198 419 q 231 442 272 472 q 312 501 356 533 q 400 564 440 590 q 479 616 510 633 q 541 650 555 650 q 565 650 572 646 q 578 641 585 628 q 545 577 494 536 q 442 494 388 456 q 333 418 279 381 q 225 345 180 304 q 261 281 334 258 q 408 234 477 214 q 546 194 613 180 q 680 166 747 162 q 747 147 746 137 q 745 126 740 118 q 735 110 725 106 q 715 102 696 101 l 687 101 q 643 113 578 127 q 513 142 439 157 q 365 172 291 188 q 216 205 153 222 q 153 209 156 185 q 158 160 159 132 q 160 104 158 76 q 155 48 145 27 q 134 7 113 -2 q 93 -11 59 0 z"},"u":{"x_min":0,"x_max":635,"ha":635,"o":"m 27 162 q 27 182 24 217 q 21 252 18 293 q 16 335 16 378 q 17 421 23 456 q 30 490 45 513 q 61 535 89 535 q 123 525 135 510 q 147 494 146 472 q 145 449 134 420 q 124 391 113 353 q 103 315 97 270 q 91 225 99 170 q 107 135 134 116 q 161 97 198 91 q 235 86 278 92 q 320 99 360 114 q 400 129 434 151 q 467 173 485 198 q 495 247 496 288 q 497 328 494 366 q 491 404 486 444 q 481 483 480 531 q 518 547 539 526 q 561 506 572 462 q 583 419 587 359 q 591 300 591 237 q 592 174 592 114 q 592 55 597 13 q 570 -13 542 8 q 513 28 497 97 q 481 83 443 63 q 405 43 356 27 q 307 12 252 5 q 198 -2 151 10 q 104 21 70 57 q 36 93 27 162 z"},"]":{"x_min":0,"x_max":676,"ha":676,"o":"m 98 -52 q 145 -49 189 -49 q 234 -49 274 -46 q 313 -43 346 -36 q 379 -28 402 -11 q 426 7 438 37 q 451 66 451 114 q 451 208 447 310 q 442 411 435 515 q 427 618 416 720 q 405 821 392 914 q 345 917 301 909 q 258 901 215 890 q 172 879 128 869 q 85 859 38 859 q 34 859 25 866 q 17 872 9 882 q 2 893 0 906 q -1 920 11 936 q 11 937 34 940 q 58 943 94 949 q 131 954 177 961 q 224 968 271 975 q 318 981 362 987 q 405 993 437 997 q 445 997 458 999 q 470 1000 482 999 q 494 998 504 994 q 514 989 517 977 q 511 872 512 746 q 514 620 520 482 q 526 345 537 201 q 548 57 561 -84 q 549 -86 514 -89 q 479 -92 431 -96 q 384 -100 331 -104 q 277 -107 230 -111 q 184 -114 148 -116 q 112 -118 102 -118 q 100 -118 99 -98 q 98 -77 98 -52 z"},"U":{"x_min":0,"x_max":702,"ha":702,"o":"m 564 169 q 515 126 473 94 q 432 62 390 42 q 349 22 304 14 q 259 5 202 9 q 126 18 87 55 q 48 93 34 149 q 21 205 26 274 q 32 344 45 417 q 59 489 74 560 q 89 631 94 689 q 98 690 109 691 q 121 691 125 691 q 158 695 168 674 q 178 652 174 614 q 170 575 157 524 q 145 473 132 417 q 120 362 113 309 q 106 255 115 211 q 123 167 151 137 q 179 107 235 102 q 313 99 367 123 q 421 146 456 190 q 491 233 511 293 q 531 353 542 421 q 552 489 555 563 q 559 637 561 709 q 566 728 576 736 q 586 744 598 745 q 609 746 622 740 q 635 734 648 725 q 654 638 653 551 q 651 465 648 377 q 645 290 642 201 q 639 112 642 20 q 642 6 629 1 q 616 -3 600 -2 q 584 -1 569 3 q 555 8 552 13 l 564 169 z"},"o":{"x_min":0,"x_max":703,"ha":703,"o":"m 63 231 q 63 312 99 369 q 134 426 188 464 q 241 502 305 522 q 368 542 426 548 q 481 551 530 534 q 579 517 614 485 q 649 454 668 411 q 688 368 683 320 q 683 240 651 180 q 619 120 566 80 q 514 39 444 19 q 374 -1 298 -1 q 183 -1 123 53 q 63 106 63 231 z m 147 202 q 147 161 158 137 q 168 112 188 100 q 208 88 237 84 q 266 80 304 80 q 362 80 417 91 q 472 103 514 129 q 556 156 581 201 q 606 245 606 312 q 606 346 597 376 q 587 407 567 430 q 548 453 520 467 q 491 480 455 480 q 407 473 359 462 q 312 452 270 425 q 228 398 195 346 q 163 294 147 202 z"},"N":{"x_min":0,"x_max":784,"ha":784,"o":"m 623 4 q 577 84 518 166 q 459 247 396 330 q 334 412 272 494 q 211 576 160 657 q 151 619 146 568 q 142 518 139 460 q 137 402 136 341 q 136 280 136 221 q 136 162 135 108 q 134 55 131 13 q 114 -2 101 -6 q 88 -10 69 -10 q 52 -10 40 -3 q 28 3 30 32 q 36 82 41 147 q 46 212 49 284 q 53 355 55 432 q 57 508 58 580 q 59 651 59 716 q 59 781 57 831 q 76 850 89 861 q 102 872 114 872 q 126 872 141 859 q 155 847 178 816 q 200 786 234 737 q 269 688 319 616 q 370 544 442 447 q 514 350 611 224 l 635 831 q 647 855 661 865 q 675 874 697 874 q 718 874 727 859 q 735 844 738 823 q 741 803 740 782 q 738 762 738 751 q 738 713 739 648 q 740 584 741 508 q 741 432 741 351 q 740 271 737 199 q 734 128 729 74 q 723 20 712 -4 z"},"+":{"x_min":0,"x_max":655,"ha":655,"o":"m 298 61 q 296 87 293 121 q 290 154 286 190 q 281 227 274 262 q 267 297 257 325 q 231 325 207 319 q 182 312 157 305 q 132 298 106 291 q 80 284 53 283 q 38 283 25 290 q 13 297 13 315 q 13 330 31 337 q 49 345 76 349 q 104 353 135 354 q 166 356 193 359 q 221 362 239 368 q 257 374 257 386 l 257 588 q 257 597 262 601 q 267 605 273 608 q 280 610 288 611 q 295 611 299 611 q 320 611 327 604 q 333 597 338 568 q 340 560 343 536 q 347 513 350 487 q 354 461 356 438 q 358 415 359 406 l 627 406 q 627 388 611 376 q 595 365 569 359 q 543 354 512 352 q 481 351 452 350 q 422 350 397 349 q 372 348 359 345 q 354 315 358 279 q 362 243 368 206 q 374 168 378 130 q 383 93 379 61 q 373 56 360 50 q 348 45 334 42 q 321 40 311 43 q 301 47 298 61 z"},"G":{"x_min":0,"x_max":865,"ha":865,"o":"m 605 164 q 570 140 529 111 q 488 82 444 58 q 399 33 353 17 q 307 1 260 1 q 213 1 170 20 q 128 39 96 71 q 63 104 45 146 q 26 188 26 235 q 30 300 47 367 q 64 435 93 497 q 122 560 163 614 q 204 669 256 709 q 309 750 372 773 q 436 796 510 795 q 522 795 538 795 q 554 796 567 793 q 580 790 588 781 q 597 771 595 752 q 496 747 411 707 q 326 666 263 599 q 200 531 164 440 q 128 350 128 245 q 128 204 141 173 q 154 142 177 121 q 200 101 232 90 q 265 79 303 79 q 321 79 352 86 q 382 94 417 106 q 451 119 486 137 q 521 154 550 175 q 579 196 597 219 q 615 242 615 266 l 615 446 q 603 447 577 443 q 552 439 520 434 q 488 428 454 420 q 420 413 388 406 q 356 399 331 394 q 305 389 291 387 q 284 390 276 394 q 268 398 267 407 q 266 415 277 429 q 288 442 320 464 q 322 465 347 469 q 371 474 409 479 q 446 485 492 493 q 538 500 583 507 q 629 514 669 520 q 710 525 736 529 q 749 527 767 530 q 785 533 802 532 q 818 531 829 523 q 840 515 838 489 l 736 448 q 728 419 723 379 q 718 340 716 295 q 714 250 714 202 q 714 154 714 108 q 715 62 715 19 q 716 -24 716 -60 q 709 -63 692 -69 q 676 -74 658 -77 q 640 -79 625 -76 q 609 -73 605 -60 l 605 164 z"},"q":{"x_min":0,"x_max":642,"ha":642,"o":"m 513 101 q 487 77 449 58 q 411 38 369 24 q 327 11 286 3 q 244 -4 211 -4 q 188 -4 160 1 q 131 6 105 17 q 80 28 62 47 q 45 66 45 95 q 41 150 57 202 q 72 254 103 298 q 133 343 176 379 q 219 415 269 440 q 318 465 373 478 q 427 490 480 488 q 516 488 545 463 q 575 438 595 405 q 595 193 596 -14 q 597 -221 610 -433 q 599 -433 591 -433 q 584 -433 577 -433 q 569 -434 559 -434 q 549 -434 531 -434 z m 137 137 q 137 113 146 101 q 154 88 169 83 q 184 77 202 77 q 221 76 240 76 q 281 76 324 84 q 366 93 401 112 q 436 132 458 166 q 480 199 480 249 q 480 260 484 286 q 487 312 488 338 q 489 365 484 386 q 479 406 464 406 q 405 406 347 388 q 289 369 242 334 q 195 299 166 249 q 137 199 137 137 z"},"d":{"x_min":0,"x_max":641,"ha":641,"o":"m 501 135 q 434 83 366 48 q 298 14 235 7 q 173 0 117 26 q 61 52 17 122 q 3 186 19 242 q 34 299 70 346 q 106 393 158 427 q 210 462 269 481 q 327 501 389 503 q 451 505 508 486 q 508 501 509 531 q 511 562 513 600 q 515 638 517 680 q 519 722 521 760 q 523 798 525 828 q 527 857 528 872 q 530 896 534 915 q 537 935 546 949 q 555 964 570 972 q 585 980 610 980 q 610 863 604 752 q 597 641 591 528 q 586 415 586 298 q 587 181 603 51 q 603 22 592 11 q 582 -1 558 -1 q 534 -1 522 14 q 510 29 505 50 q 501 71 501 95 q 501 118 501 135 z m 102 173 q 104 128 127 109 q 151 90 194 98 q 215 98 257 109 q 300 120 345 138 q 391 156 431 178 q 471 200 487 223 l 487 385 q 487 399 480 408 q 473 417 461 421 q 450 426 438 427 q 426 428 417 428 q 391 432 356 424 q 321 417 285 401 q 248 385 213 361 q 179 337 152 307 q 126 277 111 243 q 97 209 102 173 z"},"1":{"x_min":0,"x_max":160,"ha":160,"o":"m 54 649 q 52 677 64 684 q 76 691 93 691 q 106 691 118 688 q 130 686 135 669 l 114 42 q 113 30 103 21 q 93 13 80 9 q 67 6 54 8 q 41 11 34 20 q 35 43 37 93 q 38 143 40 205 q 42 267 44 335 q 46 403 48 465 q 50 527 51 577 q 53 626 54 649 z"},"5":{"x_min":0,"x_max":885,"ha":885,"o":"m 152 39 q 152 64 171 86 q 190 107 216 107 l 216 86 q 245 86 282 87 q 319 88 358 93 q 396 99 433 109 q 470 120 498 140 q 526 159 544 189 q 562 219 562 263 q 562 305 540 330 q 518 354 485 367 q 453 379 416 382 q 378 386 346 386 q 312 386 280 376 q 249 366 218 354 q 188 343 157 333 q 126 323 94 323 q 85 323 75 323 q 64 323 55 326 q 46 328 40 334 q 33 340 33 353 q 33 354 34 359 q 34 364 34 365 q 36 379 39 407 q 42 436 46 472 q 50 508 54 547 q 59 587 63 623 q 67 659 70 688 q 73 717 75 730 q 80 746 91 749 q 102 751 115 751 q 139 751 146 742 q 154 733 155 719 q 155 705 152 688 q 148 671 148 655 q 234 655 319 673 q 404 691 488 713 q 572 735 656 754 q 740 772 826 772 q 839 772 850 770 q 860 767 865 750 q 861 735 849 725 q 836 715 808 706 q 779 696 730 686 q 682 675 604 659 q 527 643 417 619 q 307 596 156 562 l 156 405 q 196 409 246 417 q 296 425 348 430 q 400 435 451 433 q 501 431 542 415 q 583 398 610 365 q 637 332 643 274 q 643 223 623 183 q 604 143 571 112 q 538 81 495 60 q 451 39 404 25 q 356 12 308 6 q 260 0 216 0 q 182 0 167 7 q 152 14 152 39 z"}}}
